<svg width="22" height="21" viewBox="0 0 22 21" fill="none" xmlns="http://www.w3.org/2000/svg">
<path d="M4.98978 15.2614C4.75588 14.9827 4.76972 14.5785 5.00787 14.3165L5.07837 14.2488L16.0903 5.00875C16.3943 4.75359 16.8477 4.79325 17.1029 5.09734C17.3367 5.37608 17.3229 5.78026 17.0848 6.04222L17.0143 6.10994L6.00238 15.35C5.69829 15.6052 5.24494 15.5655 4.98978 15.2614Z" fill="white"/>
<path d="M8.33877 5.5795C7.94325 5.54576 7.64998 5.19777 7.68372 4.80225C7.7144 4.44269 8.00478 4.16763 8.35448 4.14594L8.46097 4.14721L16.6132 4.84275C16.9739 4.87352 17.2493 5.16547 17.2697 5.51623L17.268 5.62303L16.538 13.773C16.5026 14.1683 16.1534 14.4601 15.758 14.4247C15.3986 14.3925 15.1247 14.101 15.1045 13.7512L15.1062 13.6447L15.7714 6.21362L8.33877 5.5795Z" fill="white"/>
</svg>
