<svg width="147" height="105" viewBox="0 0 147 105" fill="none" xmlns="http://www.w3.org/2000/svg">
<g clip-path="url(#clip0_11_37)">
<path d="M147 3.84146C147 4.86028 146.57 5.83737 145.804 6.55779C145.038 7.2782 144 7.68293 142.917 7.68293C141.834 7.68293 140.795 7.2782 140.029 6.55779C139.264 5.83737 138.833 4.86028 138.833 3.84146C138.833 2.82264 139.264 1.84555 140.029 1.12514C140.795 0.404724 141.834 0 142.917 0C144 0 145.038 0.404724 145.804 1.12514C146.57 1.84555 147 2.82264 147 3.84146Z" fill="url(#paint0_linear_11_37)"/>
<path fill-rule="evenodd" clip-rule="evenodd" d="M37.4306 104.472C16.758 104.472 0 88.7071 0 69.259V2.56097H13.6111V69.259C13.6111 75.2021 16.1207 80.9018 20.5877 85.1042C25.0547 89.3067 31.1132 91.6675 37.4306 91.6675C50.7504 91.6675 61.25 82.0101 61.25 69.7866H74.8611V88.9939C74.8611 89.8429 75.2196 90.6572 75.8578 91.2575C76.4959 91.8578 77.3614 92.1951 78.2639 92.1951C79.1664 92.1951 80.0319 91.8578 80.67 91.2575C81.3082 90.6572 81.6667 89.8429 81.6667 88.9939V66.2652C79.1944 66.74 76.6409 66.6915 74.191 66.1232C71.7412 65.555 69.4563 64.4813 67.502 62.9798C65.5477 61.4783 63.9728 59.5867 62.8915 57.4419C61.8102 55.2972 61.2495 52.953 61.25 50.5793V18.5671C61.25 14.322 63.0425 10.2508 66.2333 7.24905C69.424 4.24733 73.7515 2.56097 78.2639 2.56097C82.7763 2.56097 87.1038 4.24733 90.2945 7.24905C93.4853 10.2508 95.2778 14.322 95.2778 18.5671V88.9939C95.2778 89.8429 95.6363 90.6572 96.2744 91.2575C96.9126 91.8578 97.7781 92.1951 98.6806 92.1951C99.583 92.1951 100.449 91.8578 101.087 91.2575C101.725 90.6572 102.083 89.8429 102.083 88.9939V18.5671C102.083 14.322 103.876 10.2508 107.067 7.24905C110.257 4.24733 114.585 2.56097 119.097 2.56097C123.61 2.56097 127.937 4.24733 131.128 7.24905C134.319 10.2508 136.111 14.322 136.111 18.5671V88.9939C136.111 91.9664 135.231 94.8802 133.57 97.4088C131.909 99.9374 129.532 101.981 126.706 103.31C123.88 104.64 120.716 105.202 117.569 104.935C114.422 104.668 111.417 103.582 108.889 101.799C105.946 103.881 102.363 105.005 98.6806 105C94.9984 105.005 91.4147 103.881 88.4722 101.799C86.4245 103.243 84.0567 104.235 81.5453 104.699C79.0338 105.164 76.4433 105.089 73.9667 104.481C71.49 103.873 69.1911 102.748 67.241 101.188C65.291 99.6283 63.74 97.6749 62.7037 95.4732C56.0179 101.1 47.1244 104.472 37.4306 104.472ZM119.097 92.1951C117.219 92.1951 115.694 90.761 115.694 88.9939V18.5671C115.694 17.7181 116.053 16.9038 116.691 16.3035C117.329 15.7031 118.195 15.3659 119.097 15.3659C120 15.3659 120.865 15.7031 121.503 16.3035C122.142 16.9038 122.5 17.7181 122.5 18.5671V88.9939C122.5 90.761 120.976 92.1951 119.097 92.1951ZM81.6667 50.5793C81.6667 51.4283 81.3082 52.2425 80.67 52.8429C80.0319 53.4432 79.1664 53.7805 78.2639 53.7805C77.3614 53.7805 76.4959 53.4432 75.8578 52.8429C75.2196 52.2425 74.8611 51.4283 74.8611 50.5793V18.5671C74.8611 17.7181 75.2196 16.9038 75.8578 16.3035C76.4959 15.7031 77.3614 15.3659 78.2639 15.3659C79.1664 15.3659 80.0319 15.7031 80.67 16.3035C81.3082 16.9038 81.6667 17.7181 81.6667 18.5671V50.5793Z" fill="url(#paint1_linear_11_37)"/>
<path fill-rule="evenodd" clip-rule="evenodd" d="M20.4166 69.7866C20.4166 74.0317 22.2092 78.1029 25.3999 81.1046C28.5906 84.1063 32.9182 85.7927 37.4305 85.7927C41.9429 85.7927 46.2704 84.1063 49.4612 81.1046C52.6519 78.1029 54.4444 74.0317 54.4444 69.7866V18.5671C54.4444 14.322 52.6519 10.2508 49.4612 7.24905C46.2704 4.24733 41.9429 2.56097 37.4305 2.56097C32.9182 2.56097 28.5906 4.24733 25.3999 7.24905C22.2092 10.2508 20.4166 14.322 20.4166 18.5671V69.7866ZM37.4305 72.9878C35.5522 72.9878 34.0277 71.5537 34.0277 69.7866V18.5671C34.0277 17.7181 34.3862 16.9038 35.0244 16.3035C35.6625 15.7031 36.528 15.3659 37.4305 15.3659C38.333 15.3659 39.1985 15.7031 39.8366 16.3035C40.4748 16.9038 40.8333 17.7181 40.8333 18.5671V69.7866C40.8333 71.5537 39.3088 72.9878 37.4305 72.9878Z" fill="url(#paint2_linear_11_37)"/>
</g>
<defs>
<linearGradient id="paint0_linear_11_37" x1="142.917" y1="0" x2="142.917" y2="7.68293" gradientUnits="userSpaceOnUse">
<stop stop-color="#1ABFC5"/>
<stop offset="1" stop-color="white"/>
</linearGradient>
<linearGradient id="paint1_linear_11_37" x1="68.0556" y1="2.56097" x2="68.0556" y2="105" gradientUnits="userSpaceOnUse">
<stop stop-color="#1ABFC5"/>
<stop offset="1" stop-color="white"/>
</linearGradient>
<linearGradient id="paint2_linear_11_37" x1="37.4305" y1="2.56097" x2="37.4305" y2="85.7927" gradientUnits="userSpaceOnUse">
<stop stop-color="#1ABFC5"/>
<stop offset="1" stop-color="white"/>
</linearGradient>
<clipPath id="clip0_11_37">
<rect width="147" height="105" fill="white"/>
</clipPath>
</defs>
</svg>
